<svg class="IconWrapper-module--icon__1nWiK Banners-module--black__joigS IconWrapper-module--normal__2SFZ7" viewBox="0 0 24 24" xmlns="http://www.w3.org/2000/svg" xmlnsXlink="http://www.w3.org/1999/xlink" focusable="false" aria-hidden="true"><path d="M12 22c5.523 0 10-4.477 10-10S17.523 2 12 2 2 6.477 2 12s4.477 10 10 10zm0 1C5.925 23 1 18.075 1 12S5.925 1 12 1s11 4.925 11 11-4.925 11-11 11zm0-14.688a1.01 1.01 0 0 1-1.024-1.024c0-.576.448-1.008 1.024-1.008.576 0 1.024.432 1.024 1.008A1.01 1.01 0 0 1 12 8.312zM11.248 17V9.56h1.504V17h-1.504z"/></svg>